<svg xmlns="http://www.w3.org/2000/svg" xmlns:xlink="http://www.w3.org/1999/xlink" version="1.1" width="256" height="256" viewBox="0 0 256 256" xml:space="preserve">

<defs>
</defs>
<g style="stroke: none; stroke-width: 0; stroke-dasharray: none; stroke-linecap: butt; stroke-linejoin: miter; stroke-miterlimit: 10; fill: none; fill-rule: nonzero; opacity: 1;" transform="translate(1.4065934065934016 1.4065934065934016) scale(2.81 2.81)" >
	<path d="M 45 26.58 H 1 v 51.621 h 40.184 c 0.786 -1.29 2.194 -2.16 3.816 -2.16 C 49.454 60.046 49.201 43.532 45 26.58 z" style="stroke: none; stroke-width: 1; stroke-dasharray: none; stroke-linecap: butt; stroke-linejoin: miter; stroke-miterlimit: 10; fill: rgb(82,51,142); fill-rule: nonzero; opacity: 1;" transform=" matrix(1 0 0 1 0 0) " stroke-linecap="round" />
	<path d="M 45 26.58 h 44 v 51.621 H 48.816 c -0.786 -1.29 -2.194 -2.16 -3.816 -2.16 V 26.58 z" style="stroke: none; stroke-width: 1; stroke-dasharray: none; stroke-linecap: butt; stroke-linejoin: miter; stroke-miterlimit: 10; fill: rgb(107,63,178); fill-rule: nonzero; opacity: 1;" transform=" matrix(1 0 0 1 0 0) " stroke-linecap="round" />
	<path d="M 89 79.201 H 48.815 c -0.349 0 -0.673 -0.182 -0.854 -0.479 c -0.642 -1.053 -1.749 -1.681 -2.962 -1.681 s -2.32 0.628 -2.961 1.681 c -0.182 0.298 -0.505 0.479 -0.854 0.479 H 1 c -0.552 0 -1 -0.447 -1 -1 V 26.58 c 0 -0.552 0.448 -1 1 -1 h 88 c 0.553 0 1 0.448 1 1 v 51.621 C 90 78.754 89.553 79.201 89 79.201 z M 49.343 77.201 H 88 V 27.58 H 2 v 49.621 h 38.658 c 1.034 -1.362 2.619 -2.16 4.342 -2.16 C 46.724 75.041 48.309 75.839 49.343 77.201 z" style="stroke: none; stroke-width: 1; stroke-dasharray: none; stroke-linecap: butt; stroke-linejoin: miter; stroke-miterlimit: 10; fill: rgb(0,0,0); fill-rule: nonzero; opacity: 1;" transform=" matrix(1 0 0 1 0 0) " stroke-linecap="round" />
	<rect x="45" y="21.42" rx="0" ry="0" width="37.86" height="50.64" style="stroke: none; stroke-width: 1; stroke-dasharray: none; stroke-linecap: butt; stroke-linejoin: miter; stroke-miterlimit: 10; fill: rgb(236,236,236); fill-rule: nonzero; opacity: 1;" transform=" matrix(1 0 0 1 0 0) "/>
	<polyline points="45,72.06 7.14,72.06 7.14,21.42 21.57,21.42 " style="stroke: none; stroke-width: 1; stroke-dasharray: none; stroke-linecap: butt; stroke-linejoin: miter; stroke-miterlimit: 10; fill: rgb(214,214,214); fill-rule: nonzero; opacity: 1;" transform="  matrix(1 0 0 1 0 0) "/>
	<path d="M 45 72.061 c -5.629 -5.972 -13.439 -9.178 -23.432 -9.618 V 11.8 c 9.993 0.44 17.803 3.647 23.432 9.618" style="stroke: none; stroke-width: 1; stroke-dasharray: none; stroke-linecap: butt; stroke-linejoin: miter; stroke-miterlimit: 10; fill: rgb(236,236,236); fill-rule: nonzero; opacity: 1;" transform=" matrix(1 0 0 1 0 0) " stroke-linecap="round" />
	<path d="M 82.859 73.061 H 45 c -0.552 0 -1 -0.447 -1 -1 V 21.417 c 0 -0.552 0.448 -1 1 -1 h 37.859 c 0.553 0 1 0.448 1 1 V 72.06 C 83.859 72.613 83.412 73.061 82.859 73.061 z M 46 71.061 h 35.859 V 22.417 H 46 V 71.061 z" style="stroke: none; stroke-width: 1; stroke-dasharray: none; stroke-linecap: butt; stroke-linejoin: miter; stroke-miterlimit: 10; fill: rgb(0,0,0); fill-rule: nonzero; opacity: 1;" transform=" matrix(1 0 0 1 0 0) " stroke-linecap="round" />
	<path d="M 45 73.061 H 7.141 c -0.552 0 -1 -0.447 -1 -1 V 21.417 c 0 -0.552 0.448 -1 1 -1 h 14.428 c 0.552 0 1 0.448 1 1 s -0.448 1 -1 1 H 8.141 V 71.06 H 45 c 0.552 0 1 0.447 1 1 S 45.552 73.061 45 73.061 z" style="stroke: none; stroke-width: 1; stroke-dasharray: none; stroke-linecap: butt; stroke-linejoin: miter; stroke-miterlimit: 10; fill: rgb(0,0,0); fill-rule: nonzero; opacity: 1;" transform=" matrix(1 0 0 1 0 0) " stroke-linecap="round" />
	<path d="M 45 73.061 c -0.266 0 -0.531 -0.105 -0.728 -0.314 C 38.854 67 31.2 63.869 21.524 63.442 c -0.535 -0.023 -0.956 -0.464 -0.956 -0.999 V 11.799 c 0 -0.273 0.111 -0.534 0.309 -0.723 c 0.198 -0.188 0.467 -0.284 0.735 -0.276 c 10.215 0.45 18.328 3.792 24.115 9.932 c 0.379 0.402 0.36 1.035 -0.042 1.414 s -1.035 0.36 -1.414 -0.042 c -5.222 -5.54 -12.52 -8.649 -21.704 -9.249 v 48.639 c 9.766 0.612 17.554 3.934 23.159 9.881 c 0.379 0.401 0.36 1.034 -0.042 1.413 C 45.493 72.971 45.246 73.061 45 73.061 z" style="stroke: none; stroke-width: 1; stroke-dasharray: none; stroke-linecap: butt; stroke-linejoin: miter; stroke-miterlimit: 10; fill: rgb(0,0,0); fill-rule: nonzero; opacity: 1;" transform=" matrix(1 0 0 1 0 0) " stroke-linecap="round" />
	<path d="M 75.454 33.111 H 52.406 c -0.553 0 -1 -0.448 -1 -1 s 0.447 -1 1 -1 h 23.048 c 0.553 0 1 0.448 1 1 C 76.454 32.663 76.007 33.111 75.454 33.111 z" style="stroke: none; stroke-width: 1; stroke-dasharray: none; stroke-linecap: butt; stroke-linejoin: miter; stroke-miterlimit: 10; fill: rgb(0,0,0); fill-rule: nonzero; opacity: 1;" transform=" matrix(1 0 0 1 0 0) " stroke-linecap="round" />
	<path d="M 75.454 42.576 H 52.406 c -0.553 0 -1 -0.448 -1 -1 s 0.447 -1 1 -1 h 23.048 c 0.553 0 1 0.448 1 1 S 76.007 42.576 75.454 42.576 z" style="stroke: none; stroke-width: 1; stroke-dasharray: none; stroke-linecap: butt; stroke-linejoin: miter; stroke-miterlimit: 10; fill: rgb(0,0,0); fill-rule: nonzero; opacity: 1;" transform=" matrix(1 0 0 1 0 0) " stroke-linecap="round" />
	<path d="M 75.454 52.901 H 52.406 c -0.553 0 -1 -0.447 -1 -1 s 0.447 -1 1 -1 h 23.048 c 0.553 0 1 0.447 1 1 S 76.007 52.901 75.454 52.901 z" style="stroke: none; stroke-width: 1; stroke-dasharray: none; stroke-linecap: butt; stroke-linejoin: miter; stroke-miterlimit: 10; fill: rgb(0,0,0); fill-rule: nonzero; opacity: 1;" transform=" matrix(1 0 0 1 0 0) " stroke-linecap="round" />
	<path d="M 75.454 62.366 H 52.406 c -0.553 0 -1 -0.447 -1 -1 s 0.447 -1 1 -1 h 23.048 c 0.553 0 1 0.447 1 1 S 76.007 62.366 75.454 62.366 z" style="stroke: none; stroke-width: 1; stroke-dasharray: none; stroke-linecap: butt; stroke-linejoin: miter; stroke-miterlimit: 10; fill: rgb(0,0,0); fill-rule: nonzero; opacity: 1;" transform=" matrix(1 0 0 1 0 0) " stroke-linecap="round" />
</g>
</svg>